<svg width="69" height="57" viewBox="0 0 69 57" fill="none" xmlns="http://www.w3.org/2000/svg">
<path fill-rule="evenodd" clip-rule="evenodd" d="M51.1609 31.7444L56.1059 31.7858L56.7137 31.3809L56.75 31.3564L56.7942 31.3575L58.4208 31.4011L58.5169 31.4033L58.5494 31.4928L59 32.7643L60.314 33.3391L60.3392 33.3503L60.3577 33.3693L61.4793 34.5099L63.306 32.6491L63.3479 32.6066L63.4072 32.6077L67.8435 32.6916L67.9251 29.8959L67.9268 29.8444L67.9615 29.8053L68.8208 28.8682L67.8491 27.8964L65.5096 28.4813L65.4554 28.4952L65.4062 28.4661L61.8685 26.3956L61.8354 26.3761L61.817 26.342L59.6783 22.4073L56.4615 20.4598L51.5399 20.2054L51.2816 20.0483L49.475 18.3227L49.4152 18.2657L49.4376 18.1852L50.1342 15.65L48.7918 14.0028L47.6248 14.0643L47.5801 14.0665L47.5432 14.0425L44.5109 12.0838L44.3471 11.8557L44.0441 9.18296L41.7829 9.19693L41.7678 9.34345L41.5648 9.16281L39.0716 6.94189L37.5787 7.03247L37.5245 7.03585L37.4831 7.00121L35.6972 5.5418L35.6619 5.51272L35.6502 5.46634L35.3337 4.15288L34.0041 3.20626L33.5165 3.58146L33.2917 4.79982L33.2693 4.92452L33.1435 4.91387L29.8552 4.63154L29.8099 4.62816L29.7747 4.59685L28.6721 3.63064L25.4626 2.79138L25.4368 2.78468L25.4156 2.76957L23.7248 1.5456L23.7169 1.54005L23.708 1.53106L22.8145 0.634766L21.9478 1.50145L21.4401 3.61839L21.4345 3.64238L21.4217 3.66196L20.4717 5.12858L20.4398 5.1784L20.3822 5.18956L18.1534 5.62007L17.8504 5.61561L17.2745 5.31089L16.1126 5.61114L16.0835 5.61841L16.0572 5.61452L15.8095 5.57707L15.4741 6.17643L13.0071 7.5961L11.7367 9.61462L10.392 12.3796L10.2427 14.6212L10.6162 15.967L9.64441 17.1625L9.584 18.0868L9.30895 18.2293L7.25299 18.0599L5.75837 16.6397L5.90769 15.2944L4.48802 14.9953L3.66496 17.0132L0.675781 19.554L0.900512 21.1984L2.46951 21.1241L3.66496 22.0953L4.11391 24.1881L5.4592 24.0389L7.02877 24.3374V25.3836L5.07736 27.9512L4.67811 28.2146L3.44126 28.7474L2.84356 29.9428L1.94613 30.1676L1.87118 31.6617L3.14267 32.4098L2.83291 35.2033L2.7267 35.4784L1.64754 36.8186L1.12473 37.6411L1.34894 38.7617L2.46951 39.285L2.32018 41.0044L5.1601 42.7981L5.23499 46.0859L7.46432 50.3231L7.60019 50.5803L8.22417 51.7668L8.11681 54.52L10.019 55.5365L10.0285 55.541L11.4041 56.4255L12.6772 55.5444L12.7164 55.5169L12.7639 55.5203L14.6935 55.6215L16.7187 54.3847L16.939 52.8426L16.958 52.7078L17.0944 52.7252L19.3584 53.0277L20.5533 52.653L20.6657 52.6195L20.7188 52.724L21.6112 54.5105L23.623 55.2273L24.0692 54.8303L24.2057 52.5854L24.3846 52.3718L26.2219 52.0531L29.896 50.1576L30.3601 49.5157L30.3987 46.4633V46.4521L30.3998 46.4426L30.7532 44.3648L30.7599 44.3279L30.7834 44.2994L32.391 42.3928L32.6549 42.2709L33.6138 42.6024L34.4783 42.5667L37.3411 40.013L37.3466 40.0086L37.3545 40.0029L38.8731 38.9289L38.5186 37.9705V37.9699L37.9349 36.3763L38.1093 36.1253L40.1049 34.9315L40.1362 34.9131L40.1726 34.9119L42.7044 34.8275L45.4878 33.149L45.7472 33.0495L46.6457 32.8705L47.2983 31.9312L47.3363 31.8764L47.4034 31.8719L49.073 31.7433L49.1334 31.7388L49.1781 31.7813L49.8312 32.3952L50.8774 31.797L51.1609 31.7444Z" fill="#00437B"/>
</svg>
