<svg width="66" height="54" viewBox="0 0 66 54" fill="none" xmlns="http://www.w3.org/2000/svg">
<path fill-rule="evenodd" clip-rule="evenodd" d="M48.8755 13.8319L50.9186 12.5839L50.9746 12.5498L50.9835 12.4855L51.1937 11.0161L53.3515 11.3035L53.3822 11.3068L53.4113 11.299L54.5217 10.9518L55.3862 12.6801L55.4119 12.7304L55.4633 12.7494L57.5204 13.4841L57.6658 15.3064L57.6698 15.3466L57.6949 15.3785L58.6885 16.6796L58.7198 16.7199L58.7707 16.731L60.1842 17.0285L62.6361 19.4066V21.1321L61.5245 22.3913L61.492 22.4282L61.4898 22.4768L61.4137 23.8529L61.4054 23.9899L61.5423 23.9994L62.6131 24.0749L62.6461 24.0782L62.6775 24.0653L63.5626 23.6857L63.6313 25.5482L63.6324 25.5885L63.6559 25.622L64.3442 26.6156L64.3761 26.6626L64.4309 26.6738L65.8517 26.9584L65.9266 30.136L65.0929 30.3898L62.7764 30.9881L60.6086 32.1847L60.2351 34.1272L57.7094 34.9614L57.4472 35.0631L56.349 35.5468L55.5142 35.9812L57.2454 38.3867L55.3023 40.1816L55.0775 41.4519L56.647 41.8249L57.6943 43.2446L56.4978 49.971L54.9283 50.2702L55.4516 52.7371L49.1741 52.887L46.8279 52.0326L46.4701 52.0085L44.2413 53.0363L41.9097 52.9865L41.3835 51.6004L41.3718 51.5713L41.3517 51.5506L39.0077 49.2056L39.1084 46.9836L39.109 46.964L39.105 46.9466L38.585 44.766L38.5817 44.7481L38.5716 44.7308L37.0373 41.9697L37.4455 39.5268L37.4544 39.477L37.4287 39.4334L35.9806 36.9508L35.3621 35.3025L35.3376 35.2365L35.2693 35.2175L33.8636 34.8155L33.1658 33.8185L33.1144 33.7441L33.0272 33.7603L31.9659 33.9532L30.9494 32.7069L30.7715 32.4883L29.7685 31.2565L29.4911 31.2341L28.5238 32.0254L27.7746 30.7147L27.7119 30.604L27.5967 30.6565L26.455 31.176L26.3823 31.2084L26.3739 31.2873L26.2761 32.1718L25.2718 33.1766L25.1667 33.2812L25.2774 33.379L26.1301 34.1367L25.3513 35.5966L25.3115 35.6709L25.3574 35.7397L25.8858 36.5309L24.4879 37.0906L24.4393 37.1102L24.4152 37.1583L23.1085 39.7712L21.293 39.5799L20.1875 38.0713L20.1271 37.9897L20.0304 38.0232L16.477 39.255L15.6915 37.9383L14.496 38.4622L13.8977 37.6391L14.4211 33.0799L14.6453 30.316L13.9727 27.3263L14.047 25.4582L12.8516 24.5608L12.4775 23.4397L13.2994 22.4685L13.1496 19.3941L14.7941 18.0146L16.8869 21.8701L17.9331 20.5243L20.7741 20.375L22.2681 21.1226L22.6422 17.5351L25.377 20.0228L25.7773 20.1977L26.9767 19.2539L29.0695 20.5243L30.265 19.7029L26.2291 17.3115L28.0977 15.3673L32.1337 15.8918L33.853 18.4325L36.2444 17.5351L37.6636 14.9943L38.8596 14.8445L39.757 13.5004L42.073 13.5742L42.1032 12.8249L43.8785 13.7721L45.3306 14.7064L45.4088 14.7562L45.4849 14.7031L46.7944 13.7961L48.6021 13.8912L48.8755 13.8319ZM12.3419 17.9223L9.4354 16.3734L8.66505 14.0765L6.3641 12.3931L0.583349 11.0861L0.299751 10.1706L0 8.52215L1.05717 7.58534L2.15129 6.4755L3.4701 4.58509L3.28361 3.12304L2.72351 1.75239L3.39284 0.681641L9.25376 4.52554L10.5926 3.58837L12.1323 4.85986L10.2229 9.20416L9.89471 11.4289L10.1094 12.7987L13.834 16.2771L12.3419 17.9223Z" fill="#00437B"/>
</svg>
