<svg width="181" height="87" viewBox="0 0 181 87" fill="none" xmlns="http://www.w3.org/2000/svg">
<path fill-rule="evenodd" clip-rule="evenodd" d="M180.156 14.2023L177.097 15.8619L164.341 16.1247L162.681 18.0464L160.67 17.6098L159.71 18.4831L158.224 17.4342L157.962 19.0076L157.175 20.056L156.127 18.9204L155.865 20.231L154.466 19.7065L154.379 21.0172L153.244 20.9299L152.806 22.2406L151.059 22.4156L149.136 21.1917L149.748 23.0267L148.7 24.5124L146.078 25.3863L143.894 27.7454L143.37 30.2794L142.67 36.9198L141.622 36.3958L140.049 36.0464L139.962 34.823L138.564 34.648L137.341 31.9395L138.913 30.3666L138.826 27.8326L137.166 26.1725L137.253 24.2502L139.001 22.9395L140.574 23.464L143.108 22.1533L143.195 20.6683L145.029 20.7555L145.379 18.8331L147.913 19.8816L149.486 18.3959L148.35 17.2597L149.224 16.2119L150.623 16.8231L154.554 15.5997L154.728 14.3768L156.301 14.2896L157.001 11.2311L158.399 12.7161L159.447 11.8427H161.544L164.078 10.1826L166.088 11.056L168.098 9.9204L170.369 11.8427L175.612 12.2794L176.136 11.1433L179.195 10.3577L180.505 11.93L180.156 14.2023ZM137.952 29.5799L136.991 30.2794L136.816 27.7454L137.952 28.0076V29.5799V29.5799ZM142.846 42.949L143.195 40.9395L145.292 40.415L145.903 42.6868L145.816 44.9586L144.156 45.1336L142.846 42.949ZM121.446 36.3539L120.16 34.6614L120.723 32.6742L123.028 31.8685L124.636 33.6142L124.824 35.3061L124.475 36.4339L121.446 36.3539ZM150.459 58.103L149.517 59.7781L149.488 59.8296L149.505 59.8872L150.294 62.4788L149.087 64.3441L147.057 65.0207L147.021 65.033L146.995 65.0621L145.65 66.631L140.52 66.8591L140.473 66.8613L140.437 66.8904L137.822 69.0521L134.237 69.1085L134.186 69.1091L134.148 69.1438L131.814 71.2104L129.835 71.3144L129.102 70.1631L129.015 70.025L128.893 70.1335L125.343 73.2949L125.313 73.3217L125.302 73.3614L124.758 75.319L121.184 78.5083L121.167 78.5228L121.156 78.5419L116.378 86.7249L113.736 86.3548L109.44 82.831L109.367 82.7707L109.285 82.8165L107.714 83.6826L103.736 83.2465L100.898 81.7726L98.3091 78.8528L98.2716 78.8114L98.218 78.8069L94.7239 78.4737L94.621 78.4636L94.5813 78.5609L93.5486 81.1162L91.7112 81.9554L86.4413 79.9241L86.3513 79.8894L86.2875 79.961L84.5447 81.9157L83.8686 81.3739V78.2791L83.8692 78.2522L83.8575 78.2254L83.4482 77.2525L87.6149 72.5937L87.6351 72.2191L87.474 70.3549L87.4695 70.3124L87.4416 70.2783L86.1477 68.7076L86.0974 68.6461L86.0191 68.6584L84.4233 68.9101L84.1437 68.9973L81.8412 70.5036L79.6684 70.4125L79.5699 70.4085L79.5331 70.5003L79.1629 71.4246L79.1282 71.5123L79.197 71.5772L80.6659 72.9599L79.0136 74.667L77.9921 73.6449L77.9373 73.5901L77.8601 73.6085L75.4994 74.1984L72.045 72.1771L69.9063 68.2424L69.8878 68.2084L69.8554 68.1899L66.5777 66.2049L66.5486 66.1876L66.5134 66.1854L61.5605 65.9293L59.7287 64.1803L60.4226 61.6557L60.4416 61.5875L60.3969 61.5316L58.9644 59.7742L58.9196 59.7188L58.8503 59.7228L57.6577 59.7854L54.6266 57.8278L54.3078 55.0288L54.2944 54.9046L54.1692 54.9052L51.8141 54.9203L51.5496 54.7755L49.2152 52.6966L49.1727 52.6586L49.1145 52.6614L47.6182 52.7525L45.9118 51.3563L45.5942 50.0384L45.5807 49.987L45.5394 49.9573L44.0833 48.9212L43.9995 48.8614L43.9178 48.9246L43.3072 49.3948L43.2647 49.4284L43.2547 49.4804L43.0433 50.6266L39.9256 50.3588L38.833 49.401L38.8084 49.3792L38.776 49.3708L35.5608 48.5304L33.8985 47.3271L33.0134 46.4397L32.7898 46.2682L31.7263 47.3321L31.6994 47.359L31.6899 47.3987L31.1778 49.5313L30.2736 50.9291L27.9822 51.3708L27.3593 51.041L27.3124 51.0163L27.2604 51.0297L26.0745 51.3356L25.957 51.3183L26.5223 50.3091L26.1483 48.441L24.3556 47.9925L24.0565 46.7221L25.3269 45.152L24.2058 43.7324L24.0565 41.1162L26.8215 39.3224L26.8964 37.305L28.765 37.0808L30.334 34.4646L32.9497 34.6144L34.295 32.7457L36.6121 30.952L38.0591 30.7876L38.3359 30.7563L39.9009 30.5785L42.2169 29.0834L44.0856 30.8777L45.281 30.952L45.9542 32.6714L46.8505 31.9238L46.5525 30.8028L46.7013 28.3364L49.7665 27.2153L52.2357 27.1241L52.5135 27.1135L55.8198 26.9911L63.1434 27.9628L64.7878 27.2897L65.3112 23.3287L66.0582 20.713L68.8243 21.1614L69.6457 20.3395L68.9736 19.0691L70.1697 18.1717L70.8417 16.9013L71.44 15.4067L72.934 15.4817L75.0275 14.0614L76.6713 14.1364L79.8574 10.1284L80.0352 9.90363L81.305 8.30675L85.1161 8.2318L87.0591 5.09278L86.9847 2.85114L89.8247 1.20674L90.9463 0.384766L96.6261 0.907573L100.587 3.59873L101.634 5.6161L100.513 6.36313L99.391 4.79419L98.5696 5.317L98.8682 7.6341L100.737 10.6238L101.484 13.0897L101.334 19.8161L102.529 24.4503L101.783 28.3364L99.0919 31.9988L95.505 32.6714L89.6748 29.1583L89.3018 26.6925L87.7323 24.3004L87.4337 20.3395L86.3127 17.948L86.6867 15.2569L85.7893 13.9865L85.1659 17.8172L85.0988 18.2505L84.5933 21.6099L83.2485 23.927L80.9309 24.6746L78.1665 28.1122L77.2685 29.7566L78.2408 31.1019L78.0166 32.148L78.1984 33.3742L78.2408 33.6611L78.615 36.1834L80.7816 37.3794L82.1269 35.5862L80.7073 33.8669L81.6041 30.7284L84.893 30.3537L84.5933 34.0161L86.6107 38.7252L88.0314 39.5472L89.9745 34.6894L93.4871 34.166L96.3275 35.1372L99.1668 34.6894L101.036 38.2019L99.5403 38.5005L100.587 40.4441L102.837 38.4121L103.079 38.1935L105.221 36.2583L105.594 34.0161L110.079 31.1019L111.05 27.5894L114.339 31.1762L114.414 34.6894L113.218 36.6318L110.751 34.913L108.061 35.8099L108.734 37.7534L108.061 39.6959L110.303 41.8638L114.638 39.3224L115.834 40.4441L116.88 39.3973L125.101 41.4153L125.849 42.7611L127.343 40.9668L130.557 41.7144L129.287 44.1808L126.895 44.405L128.314 46.3481L132.351 45.9745L134.967 47.9176L140.273 47.9925V49.6364L138.629 51.1315L140.049 52.252L140.795 51.1315L141.917 51.3552L143.935 50.1597L144.01 47.6928L144.383 46.0489H147.223L150.96 50.0848L152.384 52.7067L150.587 54.2035L150.498 54.2778L150.555 54.3779L151.555 56.156L150.603 57.8468L150.459 58.103ZM82.5356 27.3947L82.7588 28.3061L81.9788 28.8273L81.4028 28.1943L81.4778 27.5804L81.9418 26.948L82.5356 27.3947ZM65.4795 44.0891L64.4854 45.0391L64.4429 45.0805L64.3842 45.0782L62.317 44.9843L62.2616 44.981L62.222 44.9407L61.2524 43.9242L62.2756 43.6692L63.3044 42.845L63.4532 42.5822L63.7322 41.8139L63.546 39.4896L63.5432 39.451L63.5616 39.4152L64.4077 37.768L64.416 37.7512L64.4295 37.7372L67.483 34.4422L67.5383 34.3818L67.6166 34.4003L69.4014 34.8241L69.4617 34.8381L69.4914 34.8934L70.055 35.929L70.0779 35.9704L70.0701 36.0167L69.7883 37.8049L69.7805 37.8519L69.748 37.8843L68.434 39.153L66.207 41.6652L65.607 43.8095L65.4795 44.0891ZM52.6131 29.2466L54.4046 28.8916L54.4269 28.8877L54.4504 28.891L56.7994 29.2198L56.8586 29.2288L56.8933 29.2774L57.8327 30.5953L57.8595 30.6333L57.8584 30.6798L57.8115 32.3275L57.8103 32.3767L57.7779 32.4142L56.9682 33.3603L57.0594 35.1887L57.0611 35.2027L57.0588 35.2149L56.824 36.8157L56.8162 36.8711L56.7709 36.9052L55.5805 37.8228L55.24 38.7186L55.0012 38.8662L52.6483 38.9114L52.5734 38.9131L52.5303 38.8505L51.5859 37.4527H49.3577H49.2918L49.2498 37.4012L48.6392 36.6475L48.5677 36.5591L48.6392 36.4714L52.4582 31.8523L52.3394 29.3271L52.6131 29.2466ZM5.4012 31.4184L2.69275 25.8957L0.505113 23.1212L0.34375 20.4849L2.39416 20.6218L3.89879 19.6646L5.1278 23.2179L6.63135 24.1752L7.31516 21.4416L8.81814 23.7648L8.95013 27.1653L8.54526 29.7789L5.4012 31.4184Z" fill="#00437B"/>
</svg>
