<svg width="84" height="80" viewBox="0 0 84 80" fill="none" xmlns="http://www.w3.org/2000/svg">
<path fill-rule="evenodd" clip-rule="evenodd" d="M60.8002 13.1945L61.7866 10.7566L65.1225 11.0742L67.6928 13.9728L67.7102 13.9929L67.7331 14.0041L70.5283 15.4557L70.5238 15.4842L74.714 15.9606L74.7576 15.9656L74.7967 15.9443L76.3221 15.1018L80.5761 18.5914L80.6062 18.6159L80.6443 18.6215L83.2353 18.985L82.7886 20.0082L80.4016 23.1668L76.8259 26.6743L73.7399 28.0767L73.6628 28.1119L73.6584 28.1968L73.5879 29.6797L73.5862 29.7166L73.6036 29.7507L74.5485 31.5741L73.2686 33.0564L73.2401 33.0888L73.2351 33.1324L73.0276 35.1409L72.2448 36.1183L69.3406 36.2569L69.2355 36.2614L69.212 36.3659L68.8005 38.2167L67.747 38.8989L66.555 37.5737L66.4331 37.4367L66.3336 37.5927L64.6751 40.2207L62.0589 40.4952L62.0024 40.5002L61.9672 40.5439L59.6574 43.2759L59.6428 43.5672L60.0393 44.7939L60.0521 44.8342L60.0845 44.8599L61.1743 45.7333L61.1906 45.7445L61.2051 45.7506L63.7788 46.8862L63.7956 46.8924L63.814 46.8957L64.5488 47.0065L64.3542 48.3719L63.4495 50.0504L63.4293 50.0907L63.435 50.136L63.5658 51.0508L63.5714 51.0865L63.5926 51.1151L64.4565 52.2663L63.9907 53.199L63.3343 53.5641L61.9253 52.1975L61.9163 52.1892L61.9096 52.183L61.2979 51.7474L61.2688 51.7245L61.2308 51.7217L60.3149 51.6345L60.278 51.6312L60.2445 51.6474L59.2749 52.0913L58.5201 51.4869L58.4787 49.6775L58.4776 49.6327L58.4507 49.5959L57.6216 48.5055L57.5835 48.4552L57.5226 48.4507L56.4759 48.3635L56.4311 48.359L56.392 48.3831L54.5172 49.517L54.4735 49.5427L54.4568 49.5908L53.9776 50.9865L53.9608 51.0379L53.9821 51.0876L55.0293 53.4422L55.0433 53.4741L55.0691 53.4937L55.9844 54.2362L56.005 54.2524L56.028 54.2608L59.9962 55.5681L60.0521 55.5871L60.1047 55.5597L61.0183 55.0805L61.5786 54.8188L62.5369 55.8157L61.8503 56.3576L60.6102 56.7417L60.5374 56.7641L60.5168 56.8385L60.0655 58.4365H59.4634L58.2282 57.7985L58.1616 57.7644L58.0974 57.8002L55.6114 59.1958L55.579 59.2148L55.5588 59.2472L54.0766 61.7768L54.0626 61.8009L54.0587 61.8266L53.8535 63.2591L52.072 63.674L51.9787 63.6952L51.9658 63.7914L51.7914 65.1004L51.5878 66.3579L51.7086 66.6139L54.6715 67.5209L55.239 68.751L54.9617 69.5824L53.8132 70.481L53.736 70.5408L53.7668 70.6336L54.2292 72.0197L54.2449 72.065L54.2823 72.0925L54.4719 72.221L56.5866 76.8491L55.39 78.5679L54.1945 79.4653L51.4296 78.5679L50.7569 77.222L49.8601 76.9229L48.7384 77.5967L47.6179 77.222L46.2726 75.728L45.9734 74.532L46.2726 72.4397L44.9273 71.6183L43.8806 70.571L42.9094 71.6183L41.7133 71.3929L41.19 70.4955L41.2649 69.375L38.874 68.3294L37.6037 68.2539L36.2572 69.1514L35.1367 68.3294L34.7632 66.3853L34.2398 65.2647L33.4928 65.0411L31.7734 66.0861L31.1008 64.7419L31.7734 63.0969L31.1757 60.4807L30.5774 58.3884L29.0834 57.8656L28.56 57.2679L29.0085 56.2966L29.0834 55.2494L27.5133 54.5018L26.7663 55.1756L25.7196 55.3992L24.8233 53.2314L24.9032 51.535L24.7075 51.3326L23.5523 51.5881L21.8335 52.0365L19.5164 52.1864L18.8438 51.6619L17.9475 51.7374L16.6771 52.7841L14.3601 52.3356L13.3877 53.3807L12.5658 55.0262L10.9213 55.7738L10.0999 54.2781L10.4729 53.0816L10.6227 51.5881L9.19576 50.2294L9.11583 46.8409L9.11303 46.7303L9.00401 46.7073L7.52955 46.4132L6.89658 45.4984L6.82163 43.4755L6.81384 43.2708L6.62816 43.3513L5.58816 43.797L4.68798 43.7327L4.75393 42.5411L5.86889 41.2769L5.90467 41.2367V41.1852V39.3507V39.2908L5.86219 39.2511L3.33816 36.8032L3.30913 36.7747L3.26997 36.7663L1.86764 36.4722L0.929385 35.2454L0.785156 33.4428L1.28443 32.9954L1.32749 32.9586L1.33087 32.9004L1.46954 30.6348L3.27781 30.3211L3.29848 30.3182L3.31692 30.3082L6.43698 28.699L6.68633 28.5704L7.04081 28.3887L7.06989 28.3724L7.08948 28.345L7.59889 27.6405L7.62459 27.6036L7.62517 27.56L7.6637 24.4758L8.00873 22.4466L9.60784 20.55L10.5366 20.8715L10.5612 20.8805L10.5869 20.8794L11.4251 20.8441L11.6845 20.7429L14.5099 18.2228L16.0129 17.1599L16.1487 16.9022L15.7674 15.8722L15.2183 14.3743L17.2044 13.1866L19.7379 13.1022L19.7748 13.1005L19.8055 13.0821L22.6957 11.3393L23.7425 11.1301L23.7984 11.1189L23.8302 11.072L24.4778 10.1427L26.0204 10.0241L26.7031 10.666L26.7786 10.7365L26.8681 10.6861L28.0345 10.0197L33.135 10.061L33.1785 10.0622L33.2132 10.0387L33.8194 9.63498L35.3066 9.67414L35.7451 10.9109L35.7652 10.968L35.8211 10.9926L37.1664 11.5808L38.413 12.849L38.6615 12.7058L40.4508 10.8841L44.9636 10.9691L45.1006 10.9724L45.104 10.8338L45.189 7.95307L46.1004 6.95893L46.1026 6.95555L47.9489 5.04886L48.0479 4.94712L47.945 4.85041L46.4426 3.43629L46.7406 2.6915L48.8603 2.77985L48.905 2.78157L48.942 2.75695L51.3211 1.20198L52.9689 0.941406L54.185 2.41753L54.3601 4.44223L50.1682 9.12952L50.1095 9.19548L50.143 9.27598L50.5758 10.3026V13.4371V13.5032L50.6283 13.5462L51.4603 14.211L51.5632 14.2937L51.6505 14.1953L53.4173 12.2149L58.6515 14.2328L58.7057 14.2535L58.7594 14.2295L60.599 13.3885L60.8002 13.1945Z" fill="#00437B"/>
</svg>
