<svg width="107" height="120" viewBox="0 0 107 120" fill="none" xmlns="http://www.w3.org/2000/svg">
<path fill-rule="evenodd" clip-rule="evenodd" d="M88.8998 0.34375L91.26 0.518725L91.6089 3.40221L89.2292 3.71311L88.7254 2.44105L88.8998 0.34375ZM99.3374 12.1763L99.7607 11.3667L101.303 10.519L101.843 12.4078L100.571 12.6393L99.3374 12.1763ZM96.0211 6.81749L95.713 5.73781L96.5607 5.46773L97.2551 6.23932L97.0628 6.93269L96.0211 6.81749ZM19.7355 99.4217L15.6872 99.2272L13.7437 97.1354L12.4733 97.5083L11.0536 99.004L11.6513 101.096L12.9217 103.19L11.8761 104.161L10.1573 102.815L8.73596 102.741L7.39124 103.487L7.1676 105.505L4.3266 105.731L3.47388 106.853L3.07297 105.65L4.1767 104.785L4.20968 104.759L4.22313 104.719L4.53123 103.794L4.54909 103.743L4.52562 103.693L3.90943 102.358L3.88372 102.302L3.82331 102.283L0.878906 101.382L1.07684 100.149L1.07793 100.146L1.23951 98.9331L3.02155 98.5182L3.11436 98.4975L3.12776 98.4024L3.3419 96.9022L4.79066 94.4308L7.17933 93.0895L8.37754 93.7101L8.40834 93.7246H8.44132H9.18216H9.28786L9.31694 93.6234L9.77597 91.9958L10.9675 91.6262L10.9927 91.6178L11.0134 91.6021L11.8415 90.9473L11.9622 90.8523L11.856 90.7416L10.7221 89.5646L10.6527 89.4936L10.5632 89.5355L9.90851 89.8414L9.9029 89.8425L9.04016 90.2948L5.15017 89.0127L4.28073 88.3087L3.26976 86.0364L3.71596 84.7386L5.50859 83.655L6.44966 83.7338L7.2134 84.737L7.25646 86.567V86.6314L7.30793 86.6733L8.18075 87.3711L8.24671 87.4242L8.32446 87.389L9.33761 86.9243L10.1786 87.0043L10.7512 87.413L12.2261 88.8439L12.2999 88.9166L12.3894 88.8668L13.1745 88.4306L13.2125 88.41L13.2315 88.3714L13.7548 87.3247L13.794 87.2475L13.7426 87.1799L12.8479 85.9866L12.7283 85.1501L13.6223 83.4906L13.6341 83.4682L13.6374 83.4442L13.8427 82.01L13.7112 81.7556L12.8848 81.632L10.3441 80.5126L9.3024 79.6795L8.90258 78.4399L11.1548 75.7756L13.7828 75.4988L13.8499 75.4927L13.8862 75.4345L15.4826 72.9066L16.6311 74.182L16.7105 74.2704L16.81 74.2061L18.011 73.4294L18.0591 73.3986L18.0714 73.3422L18.4718 71.5395L21.3324 71.4031L21.395 71.3997L21.4336 71.3516L22.2818 70.292L22.3075 70.2596L22.312 70.2194L22.5189 68.2142L23.8318 66.6928L23.8938 66.6224L23.8508 66.5385L22.879 64.6654L22.9438 63.305L25.9738 61.9267L25.9956 61.9172L26.0141 61.8993L29.6161 58.3683L29.6244 58.3599L29.6301 58.3521L32.031 55.1739L32.04 55.1616L32.0478 55.1454L32.5711 53.9477L33.3003 52.698L33.4457 52.4487L37.382 45.7071L40.9706 42.5054L41.0008 42.4786L41.012 42.4383L41.5555 40.4819L44.9528 37.4563L45.6417 38.5388L45.6847 38.6071L45.7659 38.6026L47.8732 38.4919L47.9219 38.4891L47.9577 38.4572L50.2893 36.3917L51.9097 36.366L52.1881 36.3615L53.8723 36.3347L53.9215 36.3342L53.9584 36.3033L56.5763 34.1417L61.7193 33.9125L61.7797 33.9097L61.8189 33.8644L63.1781 32.2786L65.2173 31.5987L65.2638 31.5831L65.29 31.5423L66.5593 29.5813L66.5945 29.5277L66.5749 29.4661L65.7854 26.8701L67.833 23.2306L67.871 23.1624L67.833 23.0941L66.8511 21.3485L68.5224 19.9563L71.4411 24.6396L72.1887 27.8536L73.0856 29.2732L75.8506 26.7325L75.0292 25.5365L74.6545 24.1912L75.4027 22.0989L73.2349 19.8567L73.3098 18.7356L75.7762 17.9881L77.5693 14.7741L75.9249 12.6068L77.5693 11.0379L80.7084 10.2897L82.8012 8.27237L85.4919 4.83476L87.734 3.11541L89.2292 3.71311L91.5463 6.77781L90.948 10.7387L87.9588 13.5787L88.4811 16.045L87.9588 17.9131L83.3996 28.7504L83.848 31.6647L81.1574 37.0465L77.1964 39.5878L74.7295 40.5585L70.0215 38.3912V40.4841L77.0466 44.8191L79.1389 42.577L82.203 41.4553L85.5668 38.0177L85.7904 33.6083L87.8089 31.6647L91.4713 32.188L92.517 35.3271L90.126 39.5123L91.0229 42.8756L94.2363 42.1285L92.517 41.1567L91.9187 39.9613L94.087 37.3451V33.8325L91.0229 30.1701H87.2856L87.0608 26.6576L90.7232 20.9029L90.6489 14.9989L92.1435 12.7567L93.713 12.3083L95.2075 10.963L96.1794 8.27237L97.0013 7.89889L96.7022 11.8598L94.6853 14.3257L94.8341 17.0163L99.6181 21.2764L99.4682 18.81L96.8514 15.9701L97.5247 13.6536L99.9905 15.8958L100.739 13.2051L102.244 13.1163L102.272 13.4109L102.274 13.4366L102.284 13.4578L103.984 17.0683L102.165 17.3713L102.069 17.3875L102.05 17.4837L101.607 19.9278L101.599 19.9719L101.618 20.0111L103.374 23.7433L102.957 25.4068L98.7995 27.2676L98.7369 27.2956L98.7201 27.3604L98.1649 29.5825L98.1486 29.6473L98.1889 29.6999L100.966 33.3656L100.996 33.4047L101.043 33.4165L104.065 34.1719L104.706 37.8343L103.483 40.9404L100.593 41.7181L100.439 41.7595L100.502 41.9071L101.391 44.0207L100.497 46.7012L100.474 46.7705L100.519 46.8298L102.76 49.7429L102.197 55.0353L102.191 55.0883L102.223 55.1309L104.008 57.5866L103.335 61.396L103.321 61.4799L103.39 61.5314L106.076 63.546L106.511 66.1639L104.156 69.417L104.134 69.4477L104.13 69.488L103.907 72.4033L100.348 76.9252L100.221 77.1919V80.8727V80.9532L100.291 80.9935L103.24 82.6899L102.771 83.8977L100.172 85.012L97.8014 85.3078L95.7097 83.8127L95.6359 83.7613L95.5587 83.806L91.5161 86.1264L88.1556 83.6612L88.1198 83.6354H88.074L83.2324 83.5583L80.0603 81.4436L80.0447 81.4324L80.0218 81.428L77.656 80.7396L77.5895 80.72L77.533 80.7637L75.3205 82.4422L75.2841 82.4696L75.2719 82.5115L73.704 87.5142L71.9103 87.299L71.8611 87.2923L71.8186 87.3196L70.2915 88.3115L70.2418 88.3457L70.2306 88.4033L69.9376 89.9426L67.4265 91.3801L67.1788 91.5406L67.3063 91.79L67.4271 92.8239L66.0656 94.4901L65.9878 94.5835L66.0717 94.6735L67.3555 96.0322V103.594L65.5595 104.642L65.4678 104.695L65.4947 104.796L65.9906 106.708L63.8502 106.566L63.8183 106.563L63.7876 106.576L61.9223 107.353L61.8781 107.372L61.8535 107.414L60.7654 109.358L60.7464 109.392L60.7486 109.43L60.9801 114.843L59.7137 117.851L56.4941 118.436L55.3725 119.407L54.0277 119.706L52.5326 118.884L50.8138 119.407V118.211L52.5326 116.79L51.3371 115.446L50.1417 115.147L48.5722 115.072L48.4229 113.353L45.2089 112.606L44.9098 111.336L46.4044 109.617L45.9559 108.271L46.6286 107.523L46.5542 105.581L45.4728 105.267L45.1759 105.202L43.7881 104.982L42.0699 102.067L39.9709 102.093L39.6907 102.173L37.1371 103.339L30.1115 101.993L28.0186 100.872L26.5984 101.993L24.2075 100.498L19.9977 99.5218L19.7355 99.4217Z" fill="#00437B"/>
</svg>
