<svg width="183" height="238" viewBox="0 0 183 238" fill="none" xmlns="http://www.w3.org/2000/svg">
<path fill-rule="evenodd" clip-rule="evenodd" d="M159.373 85.5719L160.246 82.9551L161.351 83.1296L163.154 83.9437L162.689 89.293L159.373 85.5719ZM138.849 174.512L137.429 170.776L133.02 168.384L130.627 162.927L128.236 161.135L128.609 159.415L129.806 159.714L130.553 158.743L129.208 156.725L126.742 155.006L127.041 153.586L128.386 152.988L130.328 155.455L134.514 158.368L137.579 164.124L144.23 170.103L153.647 176.456L149.461 176.679L147.219 177.95L148.266 181.015L150.135 185.797L153.048 187.891L155.589 189.012H157.982L159.626 192.45L157.608 191.403L156.786 191.776L154.618 191.926L154.993 194.243L154.768 197.308L152.003 193.794L151.629 191.104L148.939 189.834L148.34 188.114L147.668 186.172L145.5 184.527L143.632 181.463L141.017 177.278L138.849 174.512ZM141.317 199.315L142.361 207.098L140.792 213.749L139.671 226.455L137.354 231.088L133.467 234.227L128.086 234.154L124.947 237.143L124.798 234.975L119.118 229.146L121.136 224.737L127.265 224.212L125.696 221.522L125.982 212.798L125.94 212.522L124.724 209.042L125.47 206.649L123.48 203.396L123.216 203.304L121.136 204.258L117.323 208.518L116.651 210.612L111.57 213.077L109.179 210.984L106.944 207.452L106.68 207.346L105.143 207.546L102.303 206.649L100.808 207.397L98.7152 206.426L95.3514 207.77L86.8318 198.951L79.9554 192.151L75.2474 192.897L71.3603 191.553L66.2675 194.17L63.0916 189.408L64.2127 187.82L64.2993 187.695L64.1674 187.62L62.1735 186.479L61.8855 182.636L61.8727 182.472L61.7155 182.511L59.7586 182.975L58.5379 180.814L58.4686 180.693L58.3478 180.761L55.7959 182.179L54.3858 180.769L55.2977 179.494L55.3793 179.376L55.2608 179.296L52.2034 177.259L52.001 177.057L48.0596 169.752L45.0268 162.875L45.0106 162.839L44.9787 162.817L43.3047 161.657L43.2386 161.612L43.1676 161.644L40.4743 162.87L39.4935 159.925L39.4728 159.864L39.413 159.84L34.9057 158.038L34.8705 158.023L34.8319 158.029L32.5126 158.415L32.4405 158.428L32.4098 158.494L28.9413 165.946L26.7333 168.52L25.0369 166.824L24.9066 166.695L24.8165 166.854L23.696 168.849L20.5553 168.974L20.51 168.975L20.4765 169.001L18.3859 170.6L16.4529 168.546L16.8342 162.965L18.756 158.478L18.8169 158.335L18.6693 158.29L16.1543 157.535L15.0394 155.061L15.9306 151.374L15.9547 151.271L15.863 151.219L13.8769 150.102L14.0027 146.582L14.0039 146.544L13.9865 146.512L12.441 143.55L12.3689 143.41L12.2386 143.5L10.9923 144.374L9.49658 144.258V142.659L10.8475 141.801L10.9666 141.723L10.8894 141.606L9.6979 139.8L9.70402 139.794L9.63188 139.7L8.72162 138.564L8.64112 138.464L8.53485 138.535L6.91278 139.615L5.39915 138.427L5.36062 138.396H5.31252H1.8279L2.03368 136.546L4.16905 133.961L4.1836 133.943L4.19144 133.919L4.87525 132.101L4.91218 131.999L4.82384 131.937L3.40359 130.954V129.094V129.04L3.36838 129.001L2.164 127.687L2.71864 125.026L2.73656 124.941L2.66722 124.888L1.30847 123.842L3.36838 121.564L3.40863 121.519L3.40359 121.461L2.6079 111.448L2.60458 111.414L2.585 111.384L0.242188 107.802L1.23467 107.29L1.24755 107.283L1.25872 107.273L4.21268 104.867L6.04277 105.083L6.16799 105.098L6.19541 104.973L6.8546 101.779L7.72914 100.467L7.747 100.44L7.75204 100.407L7.96732 98.6866L11.6996 95.7232L11.8109 95.6342L11.7192 95.5252L10.0853 93.5649V90.6148V90.5718L10.0596 90.5354L6.85632 86.0052L6.4174 83.7027L6.41064 83.6714L6.39163 83.6451L5.4232 82.3546L5.53782 80.9305L7.61062 79.8949L9.10403 78.3249L10.3761 79.4465L10.8234 81.7636L11.2719 80.1935L13.0667 77.8021L19.867 77.877L19.494 79.2217L22.0348 80.9411L28.6858 78.1012L29.2098 72.4209L32.8716 73.8405L36.1599 72.72L38.3277 73.7662L41.6899 78.7739L39.6719 80.1935L45.2035 85.2012L48.7898 85.7983V78.3249L53.873 79.2217L54.7699 75.859L57.7596 76.7559L60.0012 76.3818L59.2536 74.5887L60.075 73.467L62.8411 72.7949L61.0479 70.702L60.8987 68.5343L59.403 69.2818L58.581 67.7872L60.6733 65.7693L59.2536 64.0505L66.5779 60.3137L69.0448 60.1638L66.7278 62.2562L67.1007 63.9756L68.6702 62.5559H70.2397V65.9186L72.5568 63.677L71.2864 59.3419L73.6035 57.324L77.6383 57.6231L75.9212 59.3419L77.1155 60.4636L78.0873 59.4163L79.134 60.3137L80.33 58.7437L82.646 58.52L85.0386 59.7154L86.981 59.1177L88.0283 55.4559L90.942 51.8684L95.2032 49.1029L98.193 49.4015L101.18 52.2419L105.292 49.9248L106.055 48.447L106.183 48.197L107.683 45.2917L111.57 42.3764V37.5185L115.381 39.91L117.176 38.8639L119.866 38.5653L120.165 35.6505L117.25 34.006L115.307 34.6037L113.139 31.9131L116.203 29.1476L118.371 28.5499L118.072 26.9809L121.286 21.749L133.243 15.2467L141.24 9.94044L148.117 11.8091L150.434 10.7624L146.173 9.04358L147.891 6.80142L148.266 3.73729L154.618 0L156.861 2.91538L155.067 4.18572L157.011 5.60597L155.515 7.47407L159.326 8.22166L160.15 10.0154L162.99 9.49201L163.064 12.0328L160.447 11.6593L161.718 13.1544L156.487 17.1154L153.347 16.8162L151.555 18.3109L151.778 21.0014L150.807 23.2436L149.162 21.4499L148.041 22.3467L146.099 20.6279L145.5 23.5428L147.07 25.3359L149.387 24.4396L149.461 26.3826L150.657 25.6356L151.629 26.0091L152.153 31.3154L151.18 33.3328L148.715 34.1553V37.0701L150.883 37.2194L151.18 35.1265L153.872 34.9029L155.067 33.3328L164.932 34.1553L165.68 36.6217L160.373 40.2841L162.615 41.5545L163.348 49.6464L163.374 49.9288L164.41 61.3593L166.576 66.6662L162.765 66.7405L160.224 69.3562L160.15 76.5316L156.935 73.9904L158.431 79.9693L156.413 80.4177L156.114 83.6311L161.195 93.7952L162.765 93.9451L163.064 92.2263H165.531L166.765 95.1316L166.805 95.0869L169.192 96.6357L170.688 95.8137L173.451 98.4294L171.659 99.5505L170.538 97.981L169.64 98.5793L173.302 105.081L176.89 106.128L177.339 108.071L175.546 110.014L175.47 113.451L179.73 118.384L178.459 119.431L178.236 123.093L180.702 125.559L181.524 128.997L182.123 136.471L161.494 122.645L157.723 118.387V118.387L154.544 114.797L154.169 110.537L151.854 107.847L152.75 106.651L152.227 104.932L153.872 103.138L152.452 98.6537L151.405 94.1693L150.957 87.2186L149.611 84.977L150.807 78.9981L149.536 78.6983L149.611 76.606L148.266 76.5316L145.351 74.5137L144.902 72.2716L146.846 69.3562L143.183 70.6266L142.288 73.6168L146.099 78.1755L144.695 79.485L144.634 79.768L145.201 82.1365L145.725 85.4998L145.576 87.1442L143.333 87.5183L140.12 83.1083L139.372 85.3505L137.803 85.4249L135.037 89.3858L134.59 92.7496L136.01 97.3084L136.458 105.006L138.102 106.576L139.671 104.633L141.464 105.978L139.745 108.22L137.579 109.043L136.981 113.302L134.59 115.993L132.945 114.573L134.664 112.106L132.347 112.181L129.806 114.423L126.517 115.47L127.115 119.281L125.247 119.729L123.901 120.851L121.901 122.17L121.667 122.324L120.614 123.018L121.286 124.064L121.061 124.961L118.67 124.513L111.121 131.913L111.644 135.351L110.449 138.564L111.345 142.151L110.3 146.487L109.403 155.455L105.815 164.423L105.665 167.039L108.431 167.486L111.72 165.47L113.289 170.029L115.158 167.636L116.801 169.73L118.147 163.825L122.034 161.807L127.041 162.704L129.432 163.675L128.459 165.619L129.582 166.964L132.822 168.303L133.02 168.384L133.126 168.638L133.992 170.701L135.262 176.905L136.682 178.624L141.017 187.442L141.988 190.207L141.308 199.022L141.317 199.315Z" fill="#00437B"/>
</svg>
