<svg width="165" height="177" viewBox="0 0 165 177" fill="none" xmlns="http://www.w3.org/2000/svg">
<path fill-rule="evenodd" clip-rule="evenodd" d="M116.24 172.85L117.492 172.903L118.762 175.296L128.552 176.192L135.129 172.231L137.223 172.157L137.895 169.99L141.108 167L145.593 166.775L146.937 168.046L148.805 166.326L156.729 167.598L157.849 164.534L160.54 162.665L159.419 159.901L160.615 152.426L162.633 150.408L161.287 146.821L158.447 146.521L160.466 142.785L164.026 140.314L160.805 135.482L160.752 135.403L160.806 135.326L161.893 133.786L159.969 132.686L159.906 132.648L159.899 132.575L159.618 128.82L157.719 129.272L157.618 129.296L157.566 129.204L156.362 127.07L153.835 128.474L153.744 128.524L153.67 128.45L152.104 126.884L152.02 126.8L152.088 126.704L152.985 125.449L149.872 123.373L149.843 123.355L149.826 123.324L145.85 115.954L145.721 115.681L142.785 109.023L141.209 107.931L138.446 109.187L138.306 109.252L138.258 109.103L137.249 106.076L132.836 104.312L130.629 104.678L127.183 112.081L127.176 112.098L127.163 112.112L124.846 114.817L124.747 114.931L124.639 114.825L122.967 113.153L121.899 115.052L121.861 115.119L121.782 115.123L118.608 115.25L116.453 116.898L116.353 116.973L116.268 116.882L114.206 114.693L114.165 114.648L114.169 114.589L114.555 108.922L114.557 108.899L114.567 108.876L116.437 104.512L114.01 103.785L113.949 103.766L113.923 103.708L112.765 101.134L112.746 101.09L112.756 101.044L113.634 97.4112L111.664 96.3046L111.59 96.2627L111.593 96.1778L111.722 92.6082L110.266 89.8197L109.107 90.6299L109.067 90.659L109.019 90.6556L107.345 90.527L107.215 90.5175V90.3873V88.5845V88.5091L107.281 88.4688L108.578 87.6424L107.504 86.0148L107.338 85.7833L106.582 84.8377L104.981 85.904L104.897 85.96L104.817 85.8973L103.264 84.6767H99.5152L99.5326 84.5207L99.7596 82.4737L99.7641 82.4323L99.7898 82.3999L101.939 79.8015L102.574 78.1045L101.184 77.1434L101.125 77.1014V75.1472L99.9089 73.8226L99.8608 73.77L99.8754 73.7002L100.427 71.056L99.0165 69.9713L98.8974 69.8795L98.9992 69.7677L101.12 67.4238L100.33 57.5068L97.8501 53.6907L99.092 53.0498L102.08 50.6154L102.126 50.5779L102.183 50.5846L103.947 50.7921L104.587 47.6955L104.592 47.6681L104.606 47.6463L105.478 46.3407L105.695 44.5967L105.703 44.5408L105.746 44.505L109.413 41.5941L107.837 39.7043L107.805 39.6651V36.6597L104.61 32.1413L104.592 32.1178L104.586 32.087L104.148 29.7861L103.167 28.4794L103.135 28.4369L103.14 28.3855L103.244 27.0771L101.273 28.0628L99.031 29.7817L95.9664 30.6785L94.7715 32.7709L94.8453 29.7817L101.049 23.3543L104.487 17.1512L106.057 11.6207L101.273 6.16454L96.7894 6.01527L95.2199 8.25685L93.4256 8.55659L94.7715 4.74435L91.1091 4.29592L92.3045 2.57709L90.0629 0.708984L88.045 1.45658L84.831 6.23949L85.5786 9.07934L82.141 9.30356L82.2153 10.2005L83.4857 12.0691L81.0199 11.5458L79.749 12.7412L76.9091 12.2184L76.5361 10.948L72.4997 11.0224L72.5746 13.3395L67.7162 14.0121L64.4279 16.6273L61.8871 16.7027L60.0184 18.3472L59.196 21.7099L60.7655 24.5503L58.374 25.148L52.0216 24.1019L48.3592 24.027L47.2381 26.0449L47.0888 31.2762L49.4054 33.519L50.527 36.1347H47.313L44.5475 30.9776L42.5195 31.0967L42.5435 31.3573L44.311 35.1125L44.3887 35.2791L44.2081 35.3088L42.3053 35.6258L41.886 37.9295L43.6445 41.6663L43.6652 41.7115L43.6534 41.7596L43.2095 43.5366L43.1927 43.602L43.1306 43.63L38.9723 45.4902L38.449 47.582L41.1557 51.1555L44.2187 51.921L44.3059 51.9428L44.3222 52.0322L44.9926 55.8646L44.7969 56.3606V56.3572L43.7144 59.1031L43.6887 59.1691L43.6205 59.1876L40.8169 59.943L41.6646 61.957L41.6847 62.0051L41.669 62.0543L40.7811 64.7158L43.0121 67.6144L43.0462 67.6586L43.0406 67.714L42.477 73.008L44.2657 75.4676L44.3004 75.5157L44.2909 75.5738L43.6227 79.3576L46.2853 81.3548L46.3289 81.3867L46.3379 81.4432L46.793 84.1718L46.8036 84.23L46.769 84.2781L44.4027 87.544L44.1785 90.4627L44.1751 90.5047L44.1494 90.5382L40.4976 95.1791V98.7912L43.4796 100.505L43.5835 100.565L43.54 100.675L43.0059 102.049L42.9842 102.104L42.9305 102.128L40.2595 103.273L40.2421 103.279L40.2225 103.282L37.9418 103.567L37.6421 103.535L35.6185 102.087L31.5742 104.409L31.496 104.455L31.4233 104.402L28.0237 101.909L23.1849 101.833L23.1424 101.832L23.1094 101.811L19.92 99.6836L17.6437 99.0226L15.5218 100.632L13.9321 105.704L13.8975 105.815L13.7834 105.801L11.9248 105.577L10.4912 106.51L10.1971 108.053L10.1848 108.118L10.1288 108.15L7.56461 109.618L7.7089 110.848L7.71559 110.906L7.67758 110.953L6.35576 112.567L7.5937 113.878L7.63114 113.918V113.974V118.316V118.625V121.67V121.749L7.56238 121.789L5.78766 122.825L6.30543 124.822L6.35461 125.009L6.16229 124.996L3.86196 124.843L2.07104 125.589L1.02485 127.456L1.25634 132.859L1.25863 132.888L1.24632 132.919L0.0234375 135.822L3.89104 135.908L2.32096 137.553L5.55955 142.905L5.66187 143.169L9.27222 160.497L11.2147 160.198L12.5606 158.256L13.831 158.778L14.205 160.796L18.3147 163.04L21.5287 161.843L23.2475 162.591L24.4776 165.13L24.5559 165.4L24.8175 167.971L27.2085 169.318L27.2834 171.858L29.6754 172.381L30.6466 173.577L33.3378 172.157L33.86 174.026L35.5789 176.566L38.2705 176.866L39.0919 175.071L42.68 174.921L45.0586 173.153L45.3186 173.008L54.9364 169.391L58.374 169.168L58.9717 170.064L64.1287 171.185L64.5028 173.502L66.4458 174.473L71.9014 175.071L74.0692 175.37L75.1897 176.417L76.9091 175.819L78.4786 174.473L79.5991 171.709L77.7316 169.467L77.9552 166.029L79.1512 165.654L79.2262 164.085L80.7957 164.011L81.2346 162.326L81.4845 162.203L87.8202 164.757L93.6504 166.103L94.8453 170.737L99.1049 172.979L102.095 172.903L106.356 170.363L109.644 171.409L113.081 171.185L113.978 172.754L115.956 172.839L116.24 172.85ZM116.305 142.421L116.464 141.955L117.072 138.152L117.075 138.128L117.088 138.105L118.08 136.351L118.127 136.27L118.217 136.28L119.515 136.433L119.619 136.446L119.635 136.55L119.865 138.001L119.869 138.025L119.865 138.045L119.257 141.463L119.484 144.791L120.013 146.607L120.027 146.652L120.01 146.695L119.324 148.451L119.312 148.48L119.288 148.502L118.236 149.479L117.894 150.095L118.259 151.259L118.273 151.305L118.254 151.352L117.795 152.497L117.77 152.563L117.701 152.581L116.58 152.86L116.509 154.132L116.506 154.166L116.488 154.197L115.038 156.562L115.01 156.607L114.96 156.623L112.791 157.295L111.368 159.243L111.322 159.307L111.244 159.301L109.615 159.157L109.181 161.628L109.173 161.666L109.148 161.695L107.927 163.07L107.906 163.093L107.878 163.104L103.969 164.834L103.669 164.871H101.258H101.171L101.133 164.791L100.599 163.646L100.546 163.533L100.654 163.469L101.799 162.781L101.823 162.766L101.85 162.763L103.421 162.538L106.576 160.359L107.705 158.627L107.715 158.612L107.729 158.599L110.067 156.488L110.59 154.92L110.595 154.906L110.603 154.895L111.976 152.528L111.979 152.523L113.65 149.942L115.092 145.989L116.172 142.816L116.305 142.421ZM43.4986 27.8213L44.5005 26.3178L45.3873 26.7802L45.658 29.0939L44.7711 29.4792L43.4986 27.8213Z" fill="#00437B"/>
</svg>
