<svg width="26" height="44" viewBox="0 0 26 44" fill="none" xmlns="http://www.w3.org/2000/svg">
<path fill-rule="evenodd" clip-rule="evenodd" d="M22.856 19.4554L25.1368 21.7356L25.6473 23.0798L23.9089 24.3888L24.283 25.9583L23.9838 29.5457L20.3963 32.9839L19.4251 38.5899V42.5503L18.0049 43.4477L16.8083 43.0731L15.6878 42.4765L15.1644 43.3723L14.2676 43.7469L12.3989 41.4298L12.7735 39.9341L12.9229 36.7951L10.83 33.8059L10.6801 31.5642L11.4763 30.7664L11.5753 30.4946L11.3533 29.3965L10.8227 27.965L10.6477 27.7403L9.85815 27.1549L9.82403 26.5325L9.80782 26.2446L9.78378 25.809L6.79351 24.3888L6.68111 21.8256L6.59838 21.5411L6.12138 20.8013L6.04706 18.4098L4.4736 16.6731L4.28683 16.4674L2.45903 14.4494V12.5808L0.625 9.50602L4.02683 8.32734L5.10765 9.80237L5.14458 9.85047L5.20608 9.85831L7.17764 10.0658L7.27377 10.0753L7.3174 9.98857L7.87096 8.88089L8.0236 8.57509L8.6426 7.33715L10.1511 6.73378L10.3105 6.6712L10.2149 6.52806L9.63783 5.66303L10.4296 4.17855L10.481 4.08235L10.3994 4.00964L9.57525 3.27664L10.509 2.344L10.5437 2.31044L10.5492 2.26012L10.6443 1.40459L11.5982 0.970703L12.3665 2.31491L12.4476 2.45633L12.5756 2.3535L13.6095 1.50639L15.8052 4.20145L15.8567 4.26575L15.9372 4.2512L16.9917 4.05831L17.6672 5.02285L17.6963 5.06476L17.7432 5.07764L19.1288 5.4746L19.727 7.06816L19.7321 7.08161L19.7371 7.0894L21.1652 9.53848L20.7581 11.9808L20.7508 12.0278L20.7738 12.0714L22.3209 14.8565L22.8314 16.9997L22.7319 19.1999L22.856 19.4554Z" fill="#00437B"/>
</svg>
