<svg xmlns="http://www.w3.org/2000/svg" width="80" height="13"><path fill="#FFF" d="M3.38 0a3.68 3.68 0 0 0-2.6.72A3.71 3.71 0 0 0 0 3.33v6.36a3.68 3.68 0 0 0 .78 2.6 3.71 3.71 0 0 0 2.61.71h7.07a3.69 3.69 0 0 0 2.6-.71 3.66 3.66 0 0 0 .78-2.6V7.85H10.2v2H3.65V3.11h6.55V5h3.65V3.33a3.69 3.69 0 0 0-.79-2.61 3.66 3.66 0 0 0-2.6-.72H3.38zM31.9.71A3.73 3.73 0 0 0 29.29 0h-8.74A3.68 3.68 0 0 0 18 .71a3.73 3.73 0 0 0-.77 2.61v6.37a3.7 3.7 0 0 0 .77 2.6 3.71 3.71 0 0 0 2.6.71h8.74a3.7 3.7 0 0 0 2.61-.71 3.64 3.64 0 0 0 .79-2.6V3.32A3.72 3.72 0 0 0 31.9.71zM29 9.89h-8.19V3.11H29zM48.12 0H36.51v13h3.65V3.11h8.4V0h-.44zm9.12 0h-3.18l-7.21 13h3.8s1.16-2.23 1.36-2.63h7L60.42 13h4.12zm-3.62 7.27c.45-.83 1.42-2.63 1.91-3.51.46.89 1.41 2.69 1.84 3.51zM69.61 0a3.41 3.41 0 0 0-2.13.58 2.75 2.75 0 0 0-.75 2.08V5H70V2.88h5.63C76 2.88 76 3 76 3s.09.14.09.43v1c0 .28 0 .36-.08.38s-.16.08-.37.08H71.3v2.84h4.46a1 1 0 0 1 .49.09s.1.12.1.43v1.16a.73.73 0 0 1-.08.38c0 .05-.16.1-.51.1h-6v-2h-3.29v2.37a2.94 2.94 0 0 0 .65 2.1 3.43 3.43 0 0 0 2.45.67h6.5a4.55 4.55 0 0 0 3.06-.81 2.47 2.47 0 0 0 .88-2V8.65a2.76 2.76 0 0 0-.68-1.89 2.6 2.6 0 0 0-.71-.5 2.65 2.65 0 0 0 .51-.4 2.26 2.26 0 0 0 .54-1.59V2.8A2.64 2.64 0 0 0 79 .73 3.28 3.28 0 0 0 76.64 0h-7z"/></svg>