<?xml version="1.0" encoding="UTF-8" standalone="no"?><!DOCTYPE svg PUBLIC "-//W3C//DTD SVG 1.1//EN" "http://www.w3.org/Graphics/SVG/1.1/DTD/svg11.dtd"><svg width="100%" height="100%" viewBox="0 0 22 22" version="1.1" xmlns="http://www.w3.org/2000/svg" xmlns:xlink="http://www.w3.org/1999/xlink" xml:space="preserve" xmlns:serif="http://www.serif.com/" style="fill-rule:evenodd;clip-rule:evenodd;stroke-linejoin:round;stroke-miterlimit:1.41421;"><g><circle cx="11" cy="11" r="11" style="fill:#49a2d7;"/><path d="M16.371,9.223c0,0.096 0.007,0.192 0.007,0.288c-0.004,2.342 -1.343,4.496 -3.494,5.62c-2.15,1.124 -4.771,1.039 -6.837,-0.221c0.189,0.02 0.378,0.029 0.567,0.028c1.062,0.002 2.093,-0.336 2.929,-0.961c-1.008,-0.02 -1.892,-0.648 -2.203,-1.564c0.146,0.028 0.295,0.042 0.445,0.041c0.209,0.001 0.416,-0.027 0.617,-0.082c-1.099,-0.214 -1.889,-1.138 -1.888,-2.209l0,-0.028c0.326,0.178 0.694,0.275 1.07,0.282c-1.034,-0.662 -1.354,-1.976 -0.733,-3.005c1.198,1.407 2.965,2.263 4.861,2.353c-0.042,-0.169 -0.061,-0.342 -0.058,-0.515c0.001,-0.924 0.593,-1.754 1.492,-2.093c0.9,-0.339 1.925,-0.118 2.586,0.556c0.527,-0.1 1.032,-0.285 1.493,-0.548c-0.171,0.522 -0.54,0.965 -1.034,1.241c0.469,-0.049 0.926,-0.167 1.357,-0.349c-0.316,0.452 -0.715,0.848 -1.177,1.166Z" style="fill:#fff;"/></g></svg>