<?xml version="1.0" encoding="UTF-8" standalone="no"?><!DOCTYPE svg PUBLIC "-//W3C//DTD SVG 1.1//EN" "http://www.w3.org/Graphics/SVG/1.1/DTD/svg11.dtd"><svg width="100%" height="100%" viewBox="0 0 22 22" version="1.1" xmlns="http://www.w3.org/2000/svg" xmlns:xlink="http://www.w3.org/1999/xlink" xml:space="preserve" xmlns:serif="http://www.serif.com/" style="fill-rule:evenodd;clip-rule:evenodd;stroke-linejoin:round;stroke-miterlimit:1.41421;"><g><circle cx="11" cy="11" r="11" style="fill:#455c81;"/><path d="M16.043,13.902c-0.013,-0.03 -0.026,-0.054 -0.037,-0.074c-0.193,-0.358 -0.561,-0.798 -1.104,-1.318l-0.012,-0.012l-0.006,-0.006l-0.005,-0.006l-0.006,0c-0.247,-0.243 -0.403,-0.406 -0.468,-0.489c-0.12,-0.159 -0.147,-0.32 -0.082,-0.484c0.047,-0.123 0.22,-0.383 0.521,-0.781c0.158,-0.21 0.283,-0.379 0.375,-0.507c0.667,-0.914 0.956,-1.499 0.867,-1.753l-0.034,-0.06c-0.023,-0.035 -0.083,-0.068 -0.179,-0.098c-0.097,-0.03 -0.22,-0.035 -0.37,-0.015l-1.665,0.012c-0.027,-0.01 -0.065,-0.009 -0.115,0.003c-0.051,0.012 -0.076,0.018 -0.076,0.018l-0.029,0.015l-0.023,0.018c-0.019,0.012 -0.04,0.033 -0.063,0.062c-0.023,0.03 -0.042,0.065 -0.058,0.105c-0.181,0.481 -0.387,0.928 -0.618,1.342c-0.143,0.246 -0.274,0.46 -0.394,0.641c-0.119,0.181 -0.219,0.314 -0.3,0.399c-0.081,0.086 -0.154,0.154 -0.22,0.206c-0.065,0.052 -0.115,0.074 -0.15,0.066c-0.035,-0.008 -0.067,-0.016 -0.098,-0.024c-0.054,-0.036 -0.098,-0.085 -0.13,-0.146c-0.033,-0.062 -0.055,-0.139 -0.067,-0.233c-0.011,-0.093 -0.018,-0.174 -0.02,-0.241c-0.002,-0.068 -0.001,-0.164 0.003,-0.287c0.004,-0.123 0.006,-0.207 0.006,-0.25c0,-0.151 0.002,-0.315 0.008,-0.492c0.006,-0.177 0.011,-0.317 0.015,-0.421c0.004,-0.103 0.005,-0.212 0.005,-0.328c0,-0.115 -0.006,-0.205 -0.02,-0.271c-0.013,-0.066 -0.033,-0.129 -0.06,-0.191c-0.027,-0.062 -0.067,-0.109 -0.119,-0.143c-0.052,-0.034 -0.116,-0.061 -0.193,-0.081c-0.205,-0.047 -0.465,-0.073 -0.781,-0.077c-0.717,-0.008 -1.177,0.04 -1.381,0.143c-0.081,0.044 -0.155,0.103 -0.22,0.179c-0.069,0.087 -0.079,0.135 -0.029,0.143c0.231,0.036 0.395,0.121 0.491,0.256l0.035,0.072c0.027,0.052 0.054,0.143 0.081,0.274c0.027,0.132 0.044,0.277 0.052,0.436c0.019,0.29 0.019,0.538 0,0.745c-0.019,0.207 -0.038,0.368 -0.055,0.483c-0.017,0.116 -0.043,0.209 -0.078,0.281c-0.035,0.071 -0.058,0.115 -0.069,0.131c-0.012,0.016 -0.022,0.026 -0.029,0.03c-0.05,0.019 -0.102,0.029 -0.156,0.029c-0.054,0 -0.12,-0.027 -0.197,-0.083c-0.077,-0.056 -0.157,-0.132 -0.24,-0.23c-0.083,-0.097 -0.176,-0.233 -0.28,-0.408c-0.104,-0.175 -0.212,-0.382 -0.324,-0.62l-0.092,-0.173c-0.058,-0.112 -0.137,-0.274 -0.237,-0.487c-0.1,-0.212 -0.189,-0.418 -0.266,-0.617c-0.031,-0.083 -0.077,-0.147 -0.139,-0.191l-0.029,-0.018c-0.019,-0.015 -0.05,-0.032 -0.092,-0.05c-0.043,-0.018 -0.087,-0.031 -0.133,-0.039l-1.584,0.012c-0.162,0 -0.272,0.038 -0.329,0.113l-0.024,0.036c-0.011,0.02 -0.017,0.052 -0.017,0.095c0,0.044 0.012,0.098 0.035,0.161c0.231,0.561 0.482,1.102 0.754,1.623c0.272,0.52 0.508,0.94 0.708,1.258c0.2,0.318 0.405,0.618 0.613,0.901c0.208,0.282 0.346,0.463 0.413,0.542c0.068,0.08 0.121,0.139 0.159,0.179l0.145,0.143c0.092,0.096 0.228,0.21 0.407,0.343c0.179,0.133 0.378,0.265 0.595,0.394c0.218,0.129 0.472,0.234 0.761,0.316c0.289,0.081 0.57,0.114 0.844,0.098l0.664,0c0.135,-0.012 0.237,-0.055 0.307,-0.131l0.023,-0.03c0.015,-0.023 0.03,-0.06 0.043,-0.11c0.014,-0.05 0.02,-0.104 0.02,-0.164c-0.004,-0.171 0.009,-0.325 0.038,-0.462c0.029,-0.137 0.061,-0.241 0.098,-0.31c0.037,-0.07 0.078,-0.128 0.124,-0.176c0.047,-0.048 0.08,-0.077 0.099,-0.087c0.019,-0.01 0.034,-0.016 0.046,-0.02c0.092,-0.032 0.201,-0.001 0.327,0.092c0.125,0.094 0.242,0.209 0.352,0.346c0.11,0.137 0.242,0.291 0.396,0.462c0.154,0.171 0.289,0.298 0.405,0.382l0.115,0.071c0.078,0.048 0.178,0.092 0.301,0.132c0.123,0.039 0.231,0.049 0.324,0.029l1.479,-0.023c0.147,0 0.261,-0.025 0.341,-0.075c0.081,-0.05 0.129,-0.104 0.145,-0.164c0.015,-0.06 0.016,-0.127 0.003,-0.203c-0.014,-0.075 -0.027,-0.128 -0.041,-0.158Z" style="fill:#fff;fill-rule:nonzero;"/></g></svg>