<svg viewBox="0 0 22 22" xmlns="http://www.w3.org/2000/svg" fill-rule="evenodd" clip-rule="evenodd" stroke-linejoin="round" stroke-miterlimit="1.414"><circle cx="11" cy="11" r="11" fill="#49a2d7"/><path d="M16.371 9.223c0 .096.007.192.007.288-.004 2.342-1.343 4.496-3.494 5.62a6.986 6.986 0 0 1-6.837-.221c.189.02.378.029.567.028a4.88 4.88 0 0 0 2.929-.961c-1.008-.02-1.892-.648-2.203-1.564.146.028.295.042.445.041.209.001.416-.027.617-.082-1.099-.214-1.889-1.138-1.888-2.209v-.028c.326.178.694.275 1.07.282-1.034-.662-1.354-1.976-.733-3.005 1.198 1.407 2.965 2.263 4.861 2.353a1.99 1.99 0 0 1-.058-.515c.001-.924.593-1.754 1.492-2.093a2.436 2.436 0 0 1 2.586.556 4.83 4.83 0 0 0 1.493-.548 2.22 2.22 0 0 1-1.034 1.241 4.759 4.759 0 0 0 1.357-.349 4.66 4.66 0 0 1-1.177 1.166z" fill="#fff"/></svg>