<svg viewBox="0 0 22 22" xmlns="http://www.w3.org/2000/svg" fill-rule="evenodd" clip-rule="evenodd" stroke-linejoin="round" stroke-miterlimit="1.414"><circle cx="11" cy="11" r="11" fill="#455c81"/><path d="M16.043 13.902a.844.844 0 0 0-.037-.074c-.193-.358-.561-.798-1.104-1.318l-.012-.012-.006-.006-.005-.006h-.006a6.802 6.802 0 0 1-.468-.489c-.12-.159-.147-.32-.082-.484.047-.123.22-.383.521-.781.158-.21.283-.379.375-.507.667-.914.956-1.499.867-1.753l-.034-.06c-.023-.035-.083-.068-.179-.098a.878.878 0 0 0-.37-.015l-1.665.012a.206.206 0 0 0-.115.003l-.076.018-.029.015-.023.018a.277.277 0 0 0-.063.062.44.44 0 0 0-.058.105 9.917 9.917 0 0 1-.618 1.342c-.143.246-.274.46-.394.641a2.978 2.978 0 0 1-.3.399 2.066 2.066 0 0 1-.22.206c-.065.052-.115.074-.15.066a3.564 3.564 0 0 1-.098-.024.391.391 0 0 1-.13-.146.677.677 0 0 1-.067-.233 2.84 2.84 0 0 1-.017-.528c.004-.123.006-.207.006-.25 0-.151.002-.315.008-.492l.015-.421c.004-.103.005-.212.005-.328a1.38 1.38 0 0 0-.02-.271.92.92 0 0 0-.06-.191.318.318 0 0 0-.119-.143.648.648 0 0 0-.193-.081 3.795 3.795 0 0 0-.781-.077c-.717-.008-1.177.04-1.381.143a.774.774 0 0 0-.22.179c-.069.087-.079.135-.029.143.231.036.395.121.491.256l.035.072c.027.052.054.143.081.274.027.132.044.277.052.436.019.29.019.538 0 .745a9.168 9.168 0 0 1-.055.483.97.97 0 0 1-.147.412.117.117 0 0 1-.029.03.436.436 0 0 1-.156.029c-.054 0-.12-.027-.197-.083a1.404 1.404 0 0 1-.24-.23 3.008 3.008 0 0 1-.28-.408 7.36 7.36 0 0 1-.324-.62l-.092-.173a14.858 14.858 0 0 1-.237-.487 9.418 9.418 0 0 1-.266-.617.396.396 0 0 0-.139-.191l-.029-.018a.615.615 0 0 0-.225-.089l-1.584.012c-.162 0-.272.038-.329.113l-.024.036A.206.206 0 0 0 5 8.543c0 .044.012.098.035.161.231.561.482 1.102.754 1.623.272.52.508.94.708 1.258.2.318.405.618.613.901.208.282.346.463.413.542.068.08.121.139.159.179l.145.143c.092.096.228.21.407.343.179.133.378.265.595.394.218.129.472.234.761.316.289.081.57.114.844.098h.664a.453.453 0 0 0 .307-.131l.023-.03a.604.604 0 0 0 .063-.274 2.01 2.01 0 0 1 .038-.462c.029-.137.061-.241.098-.31a.774.774 0 0 1 .223-.263.304.304 0 0 1 .046-.02c.092-.032.201-.001.327.092.125.094.242.209.352.346.11.137.242.291.396.462.154.171.289.298.405.382l.115.071c.078.048.178.092.301.132a.635.635 0 0 0 .324.029l1.479-.023a.646.646 0 0 0 .341-.075c.081-.05.129-.104.145-.164a.49.49 0 0 0 .003-.203.757.757 0 0 0-.041-.158z" fill="#fff" fill-rule="nonzero"/></svg>